<svg width="36" height="36" viewBox="0 0 36 36" fill="none" xmlns="http://www.w3.org/2000/svg">
<path d="M10.9999 22.3763C10.6905 22.6659 10.3783 22.32 10.3783 22.32C10.3783 22.32 5.18081 16.8131 4.84331 16.5656C4.36799 16.2197 3.34987 15.6769 2.33174 16.7259C1.90706 17.1619 1.21518 18.1322 2.50049 19.6959C2.77893 20.0334 10.8761 28.5666 11.3486 29.0278C11.3486 29.0278 15.0892 32.6672 17.3533 34.0369C17.9805 34.4166 18.6864 34.8188 19.5105 35.1C20.3317 35.3813 21.2599 35.5753 22.2386 35.5753C23.2174 35.5866 24.2327 35.3981 25.1917 35.0466C26.1508 34.6922 27.0452 34.1775 27.858 33.5841C28.0577 33.4322 28.2602 33.2803 28.4486 33.1172L28.9942 32.6672C29.3669 32.3523 29.7253 32.021 30.0686 31.6744C30.7521 30.9938 31.368 30.2653 31.9108 29.52C32.4508 28.7719 32.9092 27.9984 33.2749 27.2278C33.6405 26.4572 33.8964 25.6838 34.0511 24.9525C34.2142 24.2241 34.2592 23.535 34.2339 22.9331C34.2283 22.3313 34.1074 21.8166 34.0089 21.4059C33.8964 20.9953 33.7755 20.6888 33.6799 20.4863C33.5871 20.2838 33.5364 20.1769 33.5364 20.1769C33.4071 19.8141 33.2833 19.4681 33.1736 19.1559C32.7595 17.9837 32.3367 16.8147 31.9052 15.6488L31.908 15.6572C30.5439 11.9531 29.0786 8.13657 29.0786 8.13657C28.8564 7.46438 28.038 7.23095 27.4361 7.66407C25.698 8.91282 25.1664 10.7353 25.7796 12.6788L27.3517 16.9875C27.5739 17.4684 26.9608 18.0253 26.5502 17.6906C25.2592 16.6388 22.5283 13.7391 22.5283 13.7391C21.3077 12.5691 14.4199 5.50688 13.9586 5.07657C13.0305 4.21313 11.8605 3.76876 10.9689 4.42407C10.0577 5.09344 9.80456 6.12844 10.6849 7.25907C10.9239 7.56563 17.8849 14.9203 17.8849 14.9203C18.2899 15.345 17.8117 15.9469 17.3646 15.5334C17.3646 15.5334 8.70487 6.4997 8.31393 6.07782C7.42799 5.11595 6.00487 4.90501 5.16112 5.69813C4.33706 6.47157 4.35674 7.74001 5.25674 8.73563C5.54362 9.05063 11.6439 15.4913 14.0852 18.1294C14.2483 18.3066 14.3749 18.5428 14.133 18.765C14.1302 18.7678 13.8855 19.0322 13.5705 18.6947C12.9067 17.9859 6.27768 11.0784 5.90924 10.7044C5.06268 9.84376 3.92643 9.43594 3.01237 10.2741C2.17987 11.0363 2.04487 12.3666 3.00112 13.3059L11.0308 21.7941C11.0308 21.7941 11.2924 22.1034 10.9999 22.3763Z" fill="#FAC036"/>
<path d="M24.0356 15.3L24.7134 16.0256C24.7134 16.0256 20.835 19.7691 23.4787 25.5178C23.4787 25.5178 23.8219 26.2463 23.3719 26.3672C23.3719 26.3672 22.9781 26.5866 22.5281 25.4672C22.5281 25.4644 19.8591 20.0053 24.0356 15.3Z" fill="#E48C15"/>
<path d="M17.7976 2.86876C17.7976 2.86876 19.4317 3.11626 20.9448 4.73626C22.4579 6.35907 23.1582 8.44313 23.1582 8.44313" stroke="#444444" stroke-width="0.75" stroke-miterlimit="10" stroke-linecap="round"/>
<path d="M21.78 0.984375C21.78 0.984375 23.1497 1.67344 24.2072 3.375C25.2647 5.07656 25.5207 7.04531 25.5207 7.04531" stroke="#444444" stroke-width="0.75" stroke-miterlimit="10" stroke-linecap="round"/>
<path d="M10.0435 31.1428C10.0435 31.1428 8.39539 31.2525 6.57008 29.9925C4.74477 28.7325 3.61133 26.8481 3.61133 26.8481" stroke="#444444" stroke-width="0.75" stroke-miterlimit="10" stroke-linecap="round"/>
<path d="M8.86773 33.9075C8.86773 33.9075 7.33773 33.9722 5.58273 33.0019C3.82773 32.0316 2.64648 30.4369 2.64648 30.4369" stroke="#444444" stroke-width="0.75" stroke-miterlimit="10" stroke-linecap="round"/>
</svg>
