<svg width="154" height="44" viewBox="0 0 154 44" fill="none" xmlns="http://www.w3.org/2000/svg">
<circle cx="16" cy="25" r="15.25" fill="#3D5AFE" stroke="white" stroke-width="0.5"/>
<mask id="mask0" mask-type="alpha" maskUnits="userSpaceOnUse" x="1" y="10" width="30" height="30">
<circle cx="16" cy="25" r="15" fill="#3D5AFE"/>
</mask>
<g mask="url(#mask0)">
<g style="mix-blend-mode:color-dodge">
<ellipse cx="26.6282" cy="33.083" rx="6.33667" ry="11.495" transform="rotate(33.4965 26.6282 33.083)" fill="#E8EAF6" fill-opacity="0.5"/>
</g>
<g style="mix-blend-mode:overlay">
<ellipse cx="22.6505" cy="29.3647" rx="9.59459" ry="15.6724" transform="rotate(33.4965 22.6505 29.3647)" fill="#E8EAF6" fill-opacity="0.5"/>
</g>
</g>
<path d="M37.44 35L37.224 33.596C38.496 33.38 39.276 33.14 39.564 32.876C39.852 32.612 39.996 32.168 39.996 31.544V21.176C39.996 20.552 39.828 20.108 39.492 19.844C39.18 19.556 38.352 19.316 37.008 19.124L37.224 17.972L42.12 17.504C42.288 17.504 42.468 17.744 42.66 18.224C42.852 18.704 42.948 19.208 42.948 19.736C42.948 20.24 42.9 20.828 42.804 21.5L43.092 21.608L43.56 20.564C43.992 19.604 44.64 18.848 45.504 18.296C46.392 17.72 47.28 17.432 48.168 17.432C49.08 17.432 49.92 17.624 50.688 18.008C50.688 19.976 50.508 21.944 50.148 23.912L48.384 24.092C48.192 22.076 48 20.936 47.808 20.672C47.616 20.384 47.292 20.24 46.836 20.24C46.404 20.24 45.888 20.444 45.288 20.852C44.688 21.236 44.196 21.656 43.812 22.112C43.428 22.544 43.236 23.264 43.236 24.272V32.408C43.236 32.72 43.296 32.924 43.416 33.02C43.56 33.092 43.74 33.14 43.956 33.164L47.232 33.596L47.088 35H37.44ZM57.5151 35.324C55.0911 35.324 53.2071 34.496 51.8631 32.84C50.5431 31.184 49.8831 29.096 49.8831 26.576C49.8831 24.032 50.6511 21.872 52.1871 20.096C53.7231 18.32 55.7511 17.432 58.2711 17.432C62.3511 17.432 64.4871 19.94 64.6791 24.956L63.7431 25.64L53.3031 26.216C53.3031 30.656 55.1991 32.876 58.9911 32.876C60.6471 32.876 62.2671 32.468 63.8511 31.652L64.6071 32.84C63.8151 33.488 62.7831 34.064 61.5111 34.568C60.2391 35.072 58.9071 35.324 57.5151 35.324ZM53.4111 24.56L60.8631 23.912C61.1031 23.888 61.2231 23.66 61.2231 23.228C61.2231 22.172 60.9351 21.26 60.3591 20.492C59.8071 19.724 58.8591 19.34 57.5151 19.34C56.1711 19.34 55.1871 19.796 54.5631 20.708C53.9631 21.596 53.5791 22.88 53.4111 24.56ZM71.0345 19.34C68.9225 19.34 67.8665 20.06 67.8665 21.5C67.8665 22.076 68.0105 22.508 68.2985 22.796C68.5865 23.06 68.7905 23.264 68.9105 23.408C69.0545 23.528 69.3185 23.684 69.7025 23.876C70.0865 24.068 70.3505 24.212 70.4945 24.308C70.6625 24.38 70.9865 24.512 71.4665 24.704C73.4825 25.544 74.8985 26.336 75.7145 27.08C76.5305 27.824 76.9385 28.88 76.9385 30.248C76.9385 31.616 76.3265 32.804 75.1025 33.812C73.9025 34.82 72.2465 35.324 70.1345 35.324C69.1985 35.324 68.2265 35.228 67.2185 35.036C66.2105 34.844 65.4785 34.652 65.0225 34.46C64.9745 34.148 64.9505 33.512 64.9505 32.552C64.9505 31.592 65.0585 30.548 65.2745 29.42L67.1465 29.276C67.3145 30.812 67.4345 31.76 67.5065 32.12C67.6025 32.456 67.7345 32.672 67.9025 32.768C68.6705 33.2 69.6785 33.416 70.9265 33.416C72.8705 33.416 73.8425 32.636 73.8425 31.076C73.8425 30.332 73.5545 29.72 72.9785 29.24C72.3305 28.712 71.5865 28.268 70.7465 27.908C68.5385 26.996 67.0265 26.168 66.2105 25.424C65.4185 24.656 65.0225 23.6 65.0225 22.256C65.0225 20.912 65.6345 19.772 66.8585 18.836C68.0825 17.9 69.5585 17.432 71.2865 17.432C73.0145 17.432 74.5985 17.732 76.0385 18.332C76.0625 18.524 76.0745 19.064 76.0745 19.952C76.0745 20.84 75.9185 21.776 75.6065 22.76L73.9505 22.94C73.7825 21.068 73.5065 20 73.1225 19.736C72.7625 19.472 72.0665 19.34 71.0345 19.34ZM79.1173 30.536V21.032C79.1173 20.528 78.9253 20.168 78.5413 19.952C78.1573 19.712 77.4373 19.484 76.3813 19.268L76.5973 18.116C79.1653 17.78 80.9533 17.612 81.9613 17.612L82.3573 17.972V28.988C82.3573 31.484 83.3053 32.732 85.2013 32.732C86.4253 32.732 87.6973 32.264 89.0173 31.328C89.3293 31.112 89.5333 30.908 89.6293 30.716C89.7253 30.5 89.7733 30.152 89.7733 29.672V21.032C89.7733 20.528 89.5813 20.168 89.1973 19.952C88.8133 19.712 88.0933 19.484 87.0373 19.268L87.2533 18.116C89.8213 17.78 91.6093 17.612 92.6173 17.612L93.0133 17.972V31.436C93.0133 32.06 93.1573 32.504 93.4453 32.768C93.7573 33.008 94.5253 33.248 95.7493 33.488L95.5333 34.64L90.8893 35.144C90.7213 35.168 90.5413 34.856 90.3493 34.208C90.1813 33.536 90.0973 32.96 90.0973 32.48V32.264L89.8093 32.156L89.3773 32.66C87.8653 34.436 86.0173 35.324 83.8333 35.324C82.3693 35.324 81.2173 34.94 80.3773 34.172C79.5373 33.38 79.1173 32.168 79.1173 30.536ZM95.3947 35L95.1787 33.596C96.3547 33.356 97.0627 33.116 97.3027 32.876C97.5667 32.612 97.6987 32.168 97.6987 31.544V21.176C97.6987 20.552 97.5427 20.12 97.2307 19.88C96.9427 19.616 96.1867 19.364 94.9627 19.124L95.1787 17.972L99.8227 17.504C99.9907 17.504 100.159 17.84 100.327 18.512C100.519 19.16 100.615 19.748 100.615 20.276V20.492L100.867 20.6L101.227 20.132C101.827 19.364 102.583 18.728 103.495 18.224C104.431 17.696 105.415 17.432 106.447 17.432C108.751 17.432 110.215 18.464 110.839 20.528L111.091 20.564L111.487 20.06C112.855 18.308 114.571 17.432 116.635 17.432C118.099 17.432 119.239 17.9 120.055 18.836C120.895 19.772 121.315 21.056 121.315 22.688V32.408C121.315 32.696 121.375 32.888 121.495 32.984C121.639 33.056 121.819 33.116 122.035 33.164L123.799 33.596L123.655 35H115.951L115.735 33.596C116.815 33.38 117.475 33.14 117.715 32.876C117.955 32.612 118.075 32.168 118.075 31.544V23.372C118.075 21.14 117.175 20.024 115.375 20.024C114.439 20.024 113.263 20.492 111.847 21.428C111.559 21.596 111.367 21.788 111.271 22.004C111.175 22.196 111.127 22.556 111.127 23.084V32.408C111.127 32.696 111.187 32.888 111.307 32.984C111.451 33.056 111.631 33.116 111.847 33.164L113.431 33.596L113.287 35H105.763L105.547 33.596C106.627 33.38 107.287 33.14 107.527 32.876C107.767 32.612 107.887 32.168 107.887 31.544V23.372C107.887 21.14 106.987 20.024 105.187 20.024C104.251 20.024 103.075 20.492 101.659 21.428C101.371 21.596 101.179 21.788 101.083 22.004C100.987 22.196 100.939 22.556 100.939 23.084V32.408C100.939 32.696 100.999 32.888 101.119 32.984C101.263 33.056 101.443 33.116 101.659 33.164L103.243 33.596L103.099 35H95.3947ZM123.2 35L122.984 33.596C124.16 33.356 124.868 33.116 125.108 32.876C125.372 32.612 125.504 32.168 125.504 31.544V10.628C125.504 10.124 125.312 9.764 124.928 9.548C124.544 9.308 123.824 9.08 122.768 8.864L122.984 7.712C125.552 7.376 127.34 7.208 128.348 7.208L128.744 7.568V32.408C128.744 32.696 128.804 32.888 128.924 32.984C129.068 33.056 129.248 33.116 129.464 33.164L131.228 33.596L131.084 35H123.2ZM130.823 39.212C131.399 39.284 132.191 39.32 133.199 39.32C134.231 39.32 135.047 39.188 135.647 38.924C136.247 38.684 136.967 37.376 137.807 35L131.831 20.672C131.639 20.216 131.459 19.928 131.291 19.808C131.147 19.688 130.691 19.544 129.923 19.376L130.139 17.972H137.555L137.699 19.376L135.503 19.916C135.335 19.94 135.251 20.036 135.251 20.204C135.251 20.228 135.299 20.384 135.395 20.672L139.067 30.284C139.187 30.62 139.247 30.992 139.247 31.4H139.535L143.351 21.5C143.495 21.116 143.567 20.804 143.567 20.564C143.567 20.3 143.387 20.084 143.027 19.916C142.691 19.748 142.079 19.568 141.191 19.376L141.407 17.972H147.815L147.959 19.376C146.903 19.616 146.339 19.82 146.267 19.988L140.579 34.1C140.099 35.3 139.715 36.212 139.427 36.836C139.139 37.484 138.743 38.204 138.239 38.996C137.735 39.788 137.207 40.4 136.655 40.832C135.287 41.864 133.631 42.548 131.687 42.884C131.063 42.26 130.751 41.276 130.751 39.932C130.751 39.788 130.775 39.548 130.823 39.212Z" fill="#040309"/>
</svg>
