<svg width="216" height="100" viewBox="0 0 216 100" fill="none" xmlns="http://www.w3.org/2000/svg">
<path d="M70.28 46.456C68.232 46.52 66.408 47 64.808 47.896C63.24 48.76 62.12 50.008 61.448 51.64V67H56.168V41.896H61.064V47.512C61.928 45.784 63.064 44.408 64.472 43.384C65.88 42.328 67.368 41.752 68.936 41.656C69.224 41.656 69.48 41.656 69.704 41.656C69.928 41.656 70.12 41.672 70.28 41.704V46.456ZM81.7153 67.48C79.1233 67.48 76.8513 66.888 74.8993 65.704C72.9473 64.52 71.4273 62.952 70.3393 61C69.2513 59.016 68.7073 56.856 68.7073 54.52C68.7073 52.152 69.2513 49.976 70.3393 47.992C71.4273 46.008 72.9473 44.424 74.8993 43.24C76.8513 42.056 79.1393 41.464 81.7633 41.464C84.3873 41.464 86.6593 42.072 88.5793 43.288C90.4993 44.472 91.9713 46.04 92.9953 47.992C94.0513 49.944 94.5793 52.04 94.5793 54.28C94.5793 55.08 94.5313 55.72 94.4353 56.2H74.3233C74.4193 57.672 74.8193 58.968 75.5233 60.088C76.2593 61.176 77.1713 62.04 78.2593 62.68C79.3793 63.288 80.5953 63.592 81.9073 63.592C83.3153 63.592 84.6433 63.24 85.8913 62.536C87.1393 61.832 88.0033 60.904 88.4833 59.752L92.9953 61.048C92.1313 62.936 90.6913 64.488 88.6753 65.704C86.6913 66.888 84.3713 67.48 81.7153 67.48ZM74.1793 52.696H89.3473C89.2193 51.256 88.8033 49.992 88.0993 48.904C87.3953 47.784 86.4833 46.92 85.3633 46.312C84.2753 45.672 83.0593 45.352 81.7153 45.352C80.4033 45.352 79.1873 45.672 78.0673 46.312C76.9793 46.92 76.0833 47.784 75.3793 48.904C74.6753 49.992 74.2753 51.256 74.1793 52.696ZM104.454 67.48C102.342 67.48 100.342 67.128 98.4541 66.424C96.5661 65.72 94.9501 64.696 93.6061 63.352L95.5741 59.8C97.0141 61.08 98.4541 62.008 99.8941 62.584C101.334 63.16 102.79 63.448 104.262 63.448C105.734 63.448 106.934 63.176 107.862 62.632C108.79 62.056 109.254 61.224 109.254 60.136C109.254 59.368 109.014 58.776 108.534 58.36C108.054 57.944 107.35 57.608 106.422 57.352C105.526 57.096 104.438 56.776 103.158 56.392C101.366 55.848 99.8621 55.288 98.6461 54.712C97.4301 54.104 96.5181 53.368 95.9101 52.504C95.3021 51.64 94.9981 50.536 94.9981 49.192C94.9981 46.76 95.9101 44.872 97.7341 43.528C99.5581 42.152 101.942 41.464 104.886 41.464C106.71 41.464 108.39 41.752 109.926 42.328C111.494 42.872 112.87 43.736 114.054 44.92L111.798 48.424C109.622 46.44 107.222 45.448 104.598 45.448C103.446 45.448 102.374 45.672 101.382 46.12C100.422 46.568 99.9421 47.4 99.9421 48.616C99.9421 49.64 100.374 50.376 101.238 50.824C102.102 51.272 103.382 51.752 105.078 52.264C106.998 52.84 108.646 53.416 110.022 53.992C111.43 54.536 112.502 55.256 113.238 56.152C114.006 57.016 114.39 58.216 114.39 59.752C114.39 62.184 113.478 64.088 111.654 65.464C109.83 66.808 107.43 67.48 104.454 67.48ZM115.504 57.256V41.896H120.784V56.2C120.784 60.712 122.384 62.968 125.584 62.968C127.088 62.968 128.512 62.504 129.856 61.576C131.2 60.616 132.24 59.272 132.976 57.544V41.896H138.256V61.048C138.256 61.656 138.368 62.088 138.592 62.344C138.816 62.6 139.184 62.744 139.696 62.776V67C139.152 67.096 138.704 67.16 138.352 67.192C138 67.224 137.664 67.24 137.344 67.24C136.384 67.24 135.584 66.984 134.944 66.472C134.304 65.96 133.936 65.272 133.84 64.408L133.744 61.912C132.624 63.736 131.168 65.128 129.376 66.088C127.584 67.016 125.616 67.48 123.472 67.48C120.848 67.48 118.864 66.616 117.52 64.888C116.176 63.16 115.504 60.616 115.504 57.256ZM180.034 67H174.754V52.936C174.754 50.632 174.37 48.936 173.602 47.848C172.834 46.728 171.714 46.168 170.242 46.168C168.77 46.168 167.394 46.728 166.114 47.848C164.866 48.936 163.986 50.36 163.474 52.12V67H158.194V52.936C158.194 50.568 157.81 48.856 157.042 47.8C156.274 46.712 155.17 46.168 153.73 46.168C152.258 46.168 150.882 46.712 149.602 47.8C148.354 48.888 147.458 50.312 146.914 52.072V67H141.634V41.896H146.434V46.936C147.394 45.176 148.69 43.832 150.322 42.904C151.954 41.944 153.81 41.464 155.89 41.464C157.97 41.464 159.602 42.008 160.786 43.096C162.002 44.184 162.754 45.544 163.042 47.176C165.218 43.368 168.37 41.464 172.498 41.464C174.482 41.464 176.018 41.944 177.106 42.904C178.194 43.832 178.946 45.08 179.362 46.648C179.81 48.184 180.034 49.864 180.034 51.688V67ZM182.807 31.96H188.087V59.752C188.087 61.032 188.279 61.848 188.663 62.2C189.047 62.552 189.527 62.728 190.103 62.728C190.743 62.728 191.351 62.664 191.927 62.536C192.503 62.408 192.983 62.248 193.367 62.056L194.135 66.232C193.367 66.552 192.455 66.824 191.399 67.048C190.343 67.272 189.399 67.384 188.567 67.384C186.775 67.384 185.367 66.888 184.343 65.896C183.319 64.872 182.807 63.464 182.807 61.672V31.96ZM193.622 72.904C194.102 73 194.566 73.08 195.014 73.144C195.494 73.208 195.878 73.24 196.166 73.24C196.71 73.24 197.174 73.064 197.558 72.712C197.974 72.392 198.39 71.784 198.806 70.888C199.222 69.992 199.734 68.696 200.342 67L190.022 41.896H195.542L203.222 61.624L210.038 41.896H215.126L203.75 72.808C203.238 74.216 202.342 75.416 201.062 76.408C199.814 77.4 198.198 77.896 196.214 77.896C195.83 77.896 195.43 77.864 195.014 77.8C194.598 77.736 194.134 77.64 193.622 77.512V72.904Z" fill="#040309"/>
<circle cx="15" cy="54" r="15" fill="#5B50FA"/>
<circle cx="30" cy="54" r="15" fill="#DEE9EE"/>
</svg>
